# xmcd
#
# Track frame offsets:
#	150
#	10715
#	39799
#	64333
#	91020
#	112664
#	130666
#	148067
#	159827
#
# Disc length: 2480 seconds
#
# Revision: 3
# Processed by: cddbd v1.5.2PL0 Copyright (c) Steve Scherf et al.
# Submitted via: audiograbber 1.83.01
#
DISCID=5e09ae09
DTITLE=Esther Phillips - Burnin' - Live at Freddie Jett's Pied Piper Club, L.A.
DYEAR=1969
DGENRE=R&B Oldies
TTITLE0=Don't Let Me Lose This Dream (Live 1969 at Freddie Jett's Pied Piper Cl
TTITLE0=ub, L.A., California)
TTITLE1=And I Love Him (Live 1969 at Freddie Jett's Pied Piper Club, L.A., Cali
TTITLE1=fornia)
TTITLE2=Cry Me A River Blues (Live 1969 at Freddie Jett's Pied Piper Club, L.A.
TTITLE2=, California)
TTITLE3=I'm Gettin' 'Long Alright (Live 1969 at Freddie Jett's Pied Piper Club,
TTITLE3=L.A., California)
TTITLE4=Release Me (Live 1969 at Freddie Jett's Pied Piper Club, L.A., Californ
TTITLE4=ia)
TTITLE5=Makin' Whoopee (Live 1969 at Freddie Jett's Pied Piper Club, L.A., Cali
TTITLE5=fornia)
TTITLE6=If It's The Last Thing I Do (Live 1969 at Freddie Jett's Pied Piper Clu
TTITLE6=b, L.A., California)
TTITLE7=Shangri-La (Live 1969 at Freddie Jett's Pied Piper Club, L.A., Californ
TTITLE7=ia)
TTITLE8=Please Send Me Someone To Love (Live 1969 at Freddie Jett's Pied Piper 
TTITLE8=Club, L.A., California)
EXTD=Esther Phillips - Original Album Series (2016) [Box-Set]\n\nRecorded Live 
EXTD=1969 at Freddie Jett's Pied Piper Club, L.A.\nOriginal Release: 1970\n\nMA
EXTD=RO\n
EXTT0=
EXTT1=
EXTT2=
EXTT3=
EXTT4=
EXTT5=
EXTT6=
EXTT7=
EXTT8=
PLAYORDER=
